<?xml version="1.0" encoding="UTF-8"?>
<svg width="210px" height="64px" viewBox="0 0 210 64" version="1.1" xmlns="http://www.w3.org/2000/svg" xmlns:xlink="http://www.w3.org/1999/xlink">
    <title>HSE_University_blue</title>
    <g id="HSE_University_blue" stroke="none" stroke-width="1" fill="none" fill-rule="evenodd">
        <g id="Group-4" transform="translate(119.388000, 0.677000)" fill="#233255">
            <polyline id="Fill-1" points="18.583 36.959 18.583 22.444 9.009 22.444 9.009 36.959 0 36.959 0 0.309 9.009 0.309 9.009 14.414 18.583 14.414 18.583 0.309 27.592 0.309 27.592 36.959 18.583 36.959"></polyline>
            <path d="M45.458,37.269 C39.847,37.269 35.266,36.238 31.56,32.43 L37.325,26.665 C39.23,28.569 42.576,29.239 45.509,29.239 C49.062,29.239 50.76,28.055 50.76,25.944 C50.76,25.069 50.554,24.348 50.04,23.781 C49.577,23.318 48.804,22.958 47.62,22.804 L43.193,22.187 C39.951,21.723 37.48,20.642 35.832,18.943 C34.133,17.193 33.31,14.722 33.31,11.583 C33.31,4.891 38.355,7.10542736e-15 46.694,7.10542736e-15 C51.945,7.10542736e-15 55.908,1.236 59.048,4.375 L53.385,10.037 C51.069,7.722 48.032,7.876 46.436,7.876 C43.296,7.876 42.009,9.677 42.009,11.273 C42.009,11.736 42.164,12.406 42.73,12.971 C43.193,13.435 43.965,13.898 45.252,14.053 L49.679,14.671 C52.973,15.134 55.342,16.163 56.886,17.708 C58.842,19.612 59.614,22.34 59.614,25.738 C59.614,33.201 53.18,37.269 45.458,37.269" id="Fill-3"></path>
        </g>
        <polyline id="Fill-5" fill="#233255" points="184.925 37.636 184.925 0.986 209.839 0.986 209.839 9.016 193.933 9.016 193.933 15.142 207.522 15.142 207.522 23.171 193.933 23.171 193.933 29.606 209.839 29.606 209.839 37.636 184.925 37.636"></polyline>
        <path d="M124.589,60.637 C121.727,60.637 119.388,58.705 119.388,55.689 L119.388,46.758 L122.771,46.758 L122.771,55.612 C122.771,56.887 123.467,57.621 124.589,57.621 C125.71,57.621 126.444,56.887 126.444,55.612 L126.444,46.758 L129.827,46.758 L129.827,55.689 C129.827,58.705 127.449,60.637 124.589,60.637" id="Fill-6" fill="#233255"></path>
        <path d="M137.908,60.521 L137.908,54.297 C137.908,53.099 137.057,52.867 136.632,52.867 C136.207,52.867 135.356,53.099 135.356,54.297 L135.356,60.521 L132.186,60.521 L132.186,50.121 L135.279,50.121 L135.279,50.973 C135.917,50.334 136.864,50.006 137.695,50.006 C138.68,50.006 139.473,50.334 140.034,50.895 C140.924,51.785 141.078,52.77 141.078,53.871 L141.078,60.521 L137.908,60.521" id="Fill-7" fill="#233255"></path>
        <path d="M143.379,60.521 L146.55,60.521 L146.55,50.528 L143.379,50.528 L143.379,60.521 Z M143.379,49.059 L146.55,49.059 L146.55,46.643 L143.379,46.643 L143.379,49.059 Z" id="Fill-8" fill="#233255"></path>
        <polyline id="Fill-9" fill="#233255" points="153.991 60.521 151.575 60.521 147.748 50.121 151.072 50.121 152.793 55.515 154.494 50.121 157.818 50.121 153.991 60.521"></polyline>
        <path d="M164.391,53.427 C164.199,52.983 163.773,52.616 163.019,52.616 C162.265,52.616 161.841,52.983 161.647,53.427 C161.511,53.698 161.473,53.988 161.473,54.24 L164.565,54.24 C164.565,53.988 164.527,53.698 164.391,53.427 Z M161.473,56.346 C161.473,57.197 162.131,57.97 163.309,57.97 C164.411,57.97 164.894,57.661 165.455,57.1 L167.349,58.994 C166.286,60.057 165.242,60.637 163.309,60.637 C161.009,60.637 158.361,59.806 158.361,55.322 C158.361,51.919 160.294,50.006 163.019,50.006 C166.035,50.006 167.697,52.209 167.697,54.935 L167.697,56.346 L161.473,56.346 L161.473,56.346 Z" id="Fill-10" fill="#233255"></path>
        <path d="M175.217,53.409 C174.908,53.099 174.618,52.867 174.077,52.867 C173.651,52.867 172.801,53.118 172.801,54.297 L172.801,60.521 L169.631,60.521 L169.631,50.121 L172.723,50.121 L172.723,50.973 C173.187,50.508 174.096,50.006 175.178,50.006 C176.203,50.006 176.898,50.257 177.614,50.973 L175.217,53.409" id="Fill-11" fill="#233255"></path>
        <path d="M182.138,60.637 C180.572,60.637 179.046,60.56 177.615,59.129 L179.664,57.08 C180.533,57.951 181.655,57.951 182.196,57.951 C182.66,57.951 183.55,57.815 183.55,57.274 C183.55,56.984 183.414,56.675 182.796,56.617 L181.19,56.462 C179.393,56.288 178.176,55.476 178.176,53.447 C178.176,51.147 180.244,50.006 182.312,50.006 C184.012,50.006 185.385,50.257 186.41,51.282 L184.458,53.234 C183.935,52.712 183.066,52.616 182.254,52.616 C181.481,52.616 181.229,52.983 181.229,53.214 C181.229,53.33 181.19,53.717 181.906,53.794 L183.51,53.95 C185.694,54.162 186.641,55.456 186.641,57.12 C186.641,59.574 184.553,60.637 182.138,60.637" id="Fill-12" fill="#233255"></path>
        <path d="M188.363,60.521 L191.533,60.521 L191.533,50.528 L188.363,50.528 L188.363,60.521 Z M188.363,49.059 L191.533,49.059 L191.533,46.643 L188.363,46.643 L188.363,49.059 Z" id="Fill-13" fill="#233255"></path>
        <g id="Group-17" transform="translate(193.216000, 47.551000)" fill="#233255">
            <path d="M4.174,12.97 C1.875,12.97 0.947,11.327 0.947,9.897 L0.947,5.412 L0,5.412 L0,2.977 L0.947,2.977 L0.947,-3.55271368e-15 L4.117,-3.55271368e-15 L4.117,2.977 L5.759,2.977 L5.759,5.412 L4.117,5.412 L4.117,9.665 C4.117,10.07 4.33,10.303 4.754,10.303 L5.759,10.303 L5.759,12.97 L4.174,12.97" id="Fill-14"></path>
            <path d="M12.313,14.207 C12.1,14.806 11.83,15.251 11.501,15.579 C10.882,16.237 10.09,16.449 9.162,16.449 L7.963,16.449 L7.963,13.589 L8.64,13.589 C9.201,13.589 9.491,13.453 9.704,12.816 L9.993,11.945 L6.534,2.57 L9.858,2.57 L11.617,7.964 L13.298,2.57 L16.623,2.57 L12.313,14.207" id="Fill-16"></path>
        </g>
        <polygon id="Fill-18" fill="#233255" points="89.051 63.845 90.335 63.845 90.335 0.831 89.051 0.831"></polygon>
        <path d="M31.66,62.794 C14.843,62.794 1.204,49.156 1.204,32.338 C1.204,15.521 14.843,1.882 31.66,1.882 C48.479,1.882 62.117,15.521 62.117,32.338 C62.117,49.156 48.479,62.794 31.66,62.794 Z M31.66,0.677 C14.179,0.677 0,14.854 0,32.338 C0,49.821 14.179,63.999 31.66,63.999 C49.144,63.999 63.323,49.821 63.323,32.338 C63.323,14.854 49.144,0.677 31.66,0.677 L31.66,0.677 Z" id="Fill-19" fill="#233255"></path>
        <path d="M43.773,49.98 L20.94,49.98 L22.05,47.819 L22.05,17.63 L26.951,17.63 L26.951,47.786 L30.414,47.786 L30.414,36.008 L34.934,36.008 L34.934,47.773 L38.854,47.773 L38.854,42.413 C38.854,39.163 38.684,34.644 35.028,32.31 L37.157,31.527 C41.566,33.166 43.773,37.445 43.773,43.082 L43.773,47.82 L44.882,49.98 L43.773,49.98 Z M29.661,14.047 C29.734,14.047 29.786,14.049 29.845,14.05 L31.691,14.05 C35.334,14.05 36.858,14.693 38.584,16.023 C41.095,17.992 41.491,20.848 41.491,22.278 C41.491,24.052 40.948,25.923 39.618,27.451 C38.632,28.632 36.921,30.348 33.56,30.749 C31.264,31.028 29.568,30.925 28.721,30.832 L28.721,29.03 C29.099,29.08 29.654,29.131 30.409,29.131 C32.695,29.131 34.314,27.988 35.299,26.755 C36.418,25.396 36.652,24.117 36.702,22.974 L30.414,22.974 L30.414,21.201 L36.646,21.201 C36.487,20.002 36.028,19.089 35.286,18.191 C33.857,16.416 31.838,16.121 30.507,16.121 L21.529,16.118 L20.47,14.047 L29.661,14.047 Z M31.66,5.507 C16.846,5.507 4.831,17.521 4.831,32.338 C4.831,47.155 16.846,59.169 31.66,59.169 C46.477,59.169 58.492,47.155 58.492,32.338 C58.492,17.521 46.477,5.507 31.66,5.507 L31.66,5.507 Z" id="Fill-20" fill="#233255"></path>
    </g>
</svg>